<?xml version="1.0" encoding="UTF-8"?>
<svg version="1.1" xmlns="http://www.w3.org/2000/svg" width="439" height="348">
<path d="M0 0 C144.87 0 289.74 0 439 0 C439 114.84 439 229.68 439 348 C294.13 348 149.26 348 0 348 C0 233.16 0 118.32 0 0 Z " fill="#FEFEFE" transform="translate(0,0)"/>
<path d="M0 0 C0.87011719 0.53238281 1.74023438 1.06476563 2.63671875 1.61328125 C4.43408384 2.72683205 6.21913536 3.86024663 8 5 C9.3303125 3.576875 9.3303125 3.576875 10.6875 2.125 C18.24496073 -5.37187988 33.61846236 -20 45 -20 C48 -15.61538462 48 -15.61538462 48 -13 C46.98292969 -12.50693359 46.98292969 -12.50693359 45.9453125 -12.00390625 C35.07958366 -6.45064594 26.20750827 0.17983722 22 12 C20.357122 18.73875995 20.80526578 25.73159634 20.8125 32.625 C20.81191086 33.81947754 20.81191086 33.81947754 20.81130981 35.03808594 C20.82102873 51.87869666 21.49521514 68.68176281 22.21582031 85.50439453 C22.91640208 101.97468992 23.36989972 118.43938416 23.65795898 134.921875 C23.81111209 143.40266618 24.02963313 151.87485078 24.4375 160.34765625 C24.47142349 161.1169043 24.50534698 161.88615234 24.54029846 162.67871094 C24.93442255 170.18465088 25.91001433 178.51693761 30 185 C34.38784201 186.37657789 36.38109207 186.29316692 40.5625 184.3125 C41.72073668 183.56043229 42.86671196 182.78916176 44 182 C44.58523438 181.61714844 45.17046875 181.23429688 45.7734375 180.83984375 C47.19335106 179.90990036 48.59833833 178.95723236 50 178 C51.625 180.25 51.625 180.25 53 183 C51.78473313 186.78424874 49.31350044 188.60720676 46.25 191 C41.75102419 194.58033677 37.3513099 198.24183355 33 202 C31.81266923 203.01321918 30.62517055 204.02624163 29.4375 205.0390625 C27.2171726 206.93776529 25.03445028 208.86840768 22.875 210.8359375 C21.92625 211.67382812 20.9775 212.51171875 20 213.375 C18.7625 214.50035156 18.7625 214.50035156 17.5 215.6484375 C15 217 15 217 12.00390625 216.44921875 C3.51288572 212.35277061 -2.23149147 206.59484401 -6 198 C-6.61875 196.6696875 -6.61875 196.6696875 -7.25 195.3125 C-9.14628377 189.46562504 -9.12546491 183.69869167 -9.0625 177.625 C-9.05798828 176.79355469 -9.05347656 175.96210938 -9.04882812 175.10546875 C-9.03713164 173.07028103 -9.01919935 171.03513077 -9 169 C-9.33 169.33 -9.66 169.66 -10 170 C-10.33 169.34 -10.66 168.68 -11 168 C-11.99 168.99 -12.98 169.98 -14 171 C-14.33 169.35 -14.66 167.7 -15 166 C-12.525 164.02 -12.525 164.02 -10 162 C-10 153.42 -10 144.84 -10 136 C-43.99 136 -77.98 136 -113 136 C-113.99 134.02 -113.99 134.02 -115 132 C-114.195625 131.4225 -113.39125 130.845 -112.5625 130.25 C-110.02133261 128.01873107 -109.34879632 127.25543229 -109 124 C-109.66 123.67 -110.32 123.34 -111 123 C-110.28457031 122.05382812 -109.56914062 121.10765625 -108.83203125 120.1328125 C-102.79791655 112.13140828 -96.85529393 104.07240528 -91.00585938 95.93505859 C-86.98195476 90.3429795 -82.9082448 84.78963255 -78.8125 79.25 C-74.5681389 73.50469183 -70.3452074 67.74591577 -66.1875 61.9375 C-65.56548706 61.0707666 -65.56548706 61.0707666 -64.9309082 60.18652344 C-63.49149075 58.16683021 -62.11105091 56.22210182 -61 54 C-76.90589664 48.21557481 -76.90589664 48.21557481 -93.125 50.9375 C-98.55104199 53.90808628 -102.23311273 58.17038755 -106 63 C-106.99 62.67 -107.98 62.34 -109 62 C-108.67601414 52.11843137 -104.9794545 44.43145451 -97.75 37.625 C-89.51561082 30.84863926 -79.91051138 26.60236713 -69.1875 26.5625 C-68.45990479 26.55863281 -67.73230957 26.55476563 -66.98266602 26.55078125 C-58.55555143 26.72407096 -50.89338235 29.2338585 -43 32 C-42.74347656 31.44570312 -42.48695313 30.89140625 -42.22265625 30.3203125 C-40.82449029 27.66692407 -39.18147518 25.31438073 -37.4375 22.875 C-35.03268334 19.54908252 -35.03268334 19.54908252 -33 16 C-33.54527344 15.81824219 -34.09054688 15.63648438 -34.65234375 15.44921875 C-35.78349609 15.07216797 -35.78349609 15.07216797 -36.9375 14.6875 C-37.7625 14.41421875 -38.5875 14.1409375 -39.4375 13.859375 C-41.04596739 13.31994996 -42.65082334 12.76950007 -44.25 12.203125 C-64.48856238 5.11962817 -87.98253916 5.65833245 -107.48510742 14.83837891 C-113.95705596 18.06788807 -120.20109663 21.66595531 -126 26 C-126.58652344 26.39960937 -127.17304688 26.79921875 -127.77734375 27.2109375 C-136.91090667 34.04557642 -143.0523169 46.20937435 -146 57 C-146.1959375 57.71671875 -146.391875 58.4334375 -146.59375 59.171875 C-147.216369 63.50626108 -147.06240326 67.81615174 -147 72.1875 C-146.97454644 73.99343037 -146.95349444 75.79942983 -146.9375 77.60546875 C-146.92589844 78.40106201 -146.91429687 79.19665527 -146.90234375 80.01635742 C-147 82 -147 82 -148 84 C-150.31 84 -152.62 84 -155 84 C-161.37960006 69.53957319 -158.95459833 49.33345303 -153.48828125 34.796875 C-150.27445446 26.83865146 -146.33672431 19.75551199 -141 13 C-140.2575 11.989375 -139.515 10.97875 -138.75 9.9375 C-103.23727622 -30.86190758 -41.85489851 -25.72732294 0 0 Z " fill="#090909" transform="translate(275,87)"/>
<path d="M0 0 C-1.44202476 4.15151338 -3.5010438 7.29978445 -6.125 10.8125 C-6.84945312 11.78832031 -7.57390625 12.76414062 -8.3203125 13.76953125 C-8.87460938 14.50558594 -9.42890625 15.24164063 -10 16 C-14.06258714 15.55841444 -17.53340142 14.83205291 -21.375 13.4375 C-32.20845108 10.12315652 -43.83569317 10.86941943 -54.12890625 15.45703125 C-63.61268604 20.55375644 -69.80613702 27.24737852 -73.875 37.25 C-74.83615467 40.45384892 -75.3088614 42.70547845 -75 46 C-71.58533721 44.86177907 -71.06193481 44.02690251 -68.9375 41.25 C-64.47098607 36.03281147 -59.41042869 32.80905591 -52.59375 31.55859375 C-44.17714828 31.135031 -35.36443793 34.05095357 -28 38 C-29.63996589 43.27732614 -32.9671113 47.27485114 -36.25 51.625 C-37.52485421 53.33454994 -38.79959052 55.04418781 -40.07421875 56.75390625 C-40.72696777 57.62547363 -41.3797168 58.49704102 -42.05224609 59.39501953 C-45.07445721 63.43700908 -48.06934278 67.4989729 -51.0625 71.5625 C-51.63581055 72.33972412 -52.20912109 73.11694824 -52.79980469 73.91772461 C-57.42965152 80.20267004 -62.00925283 86.52306795 -66.56274414 92.86352539 C-67.05766357 93.5518042 -67.55258301 94.24008301 -68.0625 94.94921875 C-68.53993652 95.61614746 -69.01737305 96.28307617 -69.50927734 96.97021484 C-70.55656819 98.39621813 -71.63264795 99.80130643 -72.72900391 101.18994141 C-73.28507324 101.89683105 -73.84114258 102.6037207 -74.4140625 103.33203125 C-75.17904053 104.28106323 -75.17904053 104.28106323 -75.95947266 105.24926758 C-77.33017023 107.10674541 -77.33017023 107.10674541 -76.375 110 C-75.92125 110.66 -75.4675 111.32 -75 112 C-75.61875 112.45375 -76.2375 112.9075 -76.875 113.375 C-79.05919833 114.97108919 -79.05919833 114.97108919 -81 117 C-80.67 117.66 -80.34 118.32 -80 119 C-46.01 119.33 -12.02 119.66 23 120 C23.33 128.58 23.66 137.16 24 146 C21.525 147.98 21.525 147.98 19 150 C19.33 151.32 19.66 152.64 20 154 C20 153.34 20 152.68 20 152 C21.65 152 23.3 152 25 152 C24.67 155.96 24.34 159.92 24 164 C23.67 164 23.34 164 23 164 C22.67 161.36 22.34 158.72 22 156 C21.05640625 156.76183594 20.1128125 157.52367187 19.140625 158.30859375 C11.20373229 164.69865 3.18950825 170.93575816 -5 177 C-6.89712376 178.41493813 -8.79292886 179.83164579 -10.6875 181.25 C-11.66074219 181.97832031 -12.63398438 182.70664062 -13.63671875 183.45703125 C-16.23749801 185.41459846 -18.81793213 187.39744486 -21.39453125 189.38671875 C-22.53692261 190.2669873 -22.53692261 190.2669873 -23.70239258 191.16503906 C-25.20839703 192.32682764 -26.7122251 193.49144413 -28.21362305 194.65917969 C-29.25256714 195.4601709 -29.25256714 195.4601709 -30.3125 196.27734375 C-30.92738281 196.75421631 -31.54226562 197.23108887 -32.17578125 197.72241211 C-35.75522637 200.22926922 -35.75522637 200.22926922 -38 201 C-40.03613281 200.26831055 -40.03613281 200.26831055 -42.203125 198.88671875 C-43.01048096 198.38487061 -43.81783691 197.88302246 -44.6496582 197.3659668 C-45.507771 196.81207275 -46.36588379 196.25817871 -47.25 195.6875 C-49.06018046 194.56086359 -50.87139125 193.43588105 -52.68359375 192.3125 C-53.58319824 191.74917969 -54.48280273 191.18585938 -55.40966797 190.60546875 C-81.58184037 173.66304245 -81.58184037 173.66304245 -111 169 C-114.2301177 170.8133497 -114.2301177 170.8133497 -116 174 C-116.20789641 180.13294397 -114.0605381 184.34143602 -111.05859375 189.60546875 C-109.86170899 192.31281325 -109.68266217 194.07072772 -110 197 C-111.625 199.3125 -111.625 199.3125 -114 201 C-117 201.5 -117 201.5 -120 201 C-123.74946534 198.29205281 -125.02720749 195.45863235 -126 191 C-128.48858546 170.52723698 -111.50224764 152.29927649 -100 137 C-97.38856297 133.52619932 -94.78560964 130.0462753 -92.1875 126.5625 C-91.58284912 125.76384521 -90.97819824 124.96519043 -90.35522461 124.14233398 C-89.79843018 123.39540283 -89.24163574 122.64847168 -88.66796875 121.87890625 C-88.17578857 121.2247876 -87.6836084 120.57066895 -87.17651367 119.89672852 C-85.95343684 117.92493272 -85.42998995 116.26776382 -85 114 C-85.49886719 113.63390625 -85.99773437 113.2678125 -86.51171875 112.890625 C-101.42359907 101.64647826 -118.04937953 87.20818918 -122 68 C-119.69 68 -117.38 68 -115 68 C-115.02356567 67.09459473 -115.02356567 67.09459473 -115.04760742 66.17089844 C-115.49805907 46.22938489 -113.55128355 31.20219095 -100.3046875 15.40625 C-74.15958171 -11.891013 -33.02286866 -15.26056809 0 0 Z " fill="#0A0A0A" transform="translate(242,103)"/>
<path d="M0 0 C-1.44202476 4.15151338 -3.5010438 7.29978445 -6.125 10.8125 C-6.84945312 11.78832031 -7.57390625 12.76414062 -8.3203125 13.76953125 C-8.87460938 14.50558594 -9.42890625 15.24164063 -10 16 C-14.06258714 15.55841444 -17.53340142 14.83205291 -21.375 13.4375 C-32.20845108 10.12315652 -43.83569317 10.86941943 -54.12890625 15.45703125 C-63.61268604 20.55375644 -69.80613702 27.24737852 -73.875 37.25 C-74.83615467 40.45384892 -75.3088614 42.70547845 -75 46 C-71.58533721 44.86177907 -71.06193481 44.02690251 -68.9375 41.25 C-64.47098607 36.03281147 -59.41042869 32.80905591 -52.59375 31.55859375 C-44.17714828 31.135031 -35.36443793 34.05095357 -28 38 C-29.63996589 43.27732614 -32.9671113 47.27485114 -36.25 51.625 C-37.52485421 53.33454994 -38.79959052 55.04418781 -40.07421875 56.75390625 C-40.72696777 57.62547363 -41.3797168 58.49704102 -42.05224609 59.39501953 C-45.07445636 63.43700794 -48.06947264 67.49887842 -51.0625 71.5625 C-51.63653564 72.34117432 -52.21057129 73.11984863 -52.80200195 73.92211914 C-61.33789335 85.51485542 -69.81587445 97.1553383 -78 109 C-87.85128057 107.37690572 -97.61162009 95.43095835 -103.38671875 87.87890625 C-113.08435182 74.13330627 -117.0139785 59.60260889 -114.5234375 42.78125 C-111.14618911 26.993631 -101.11657018 13.85431626 -87.74511719 5.08349609 C-60.20637911 -12.01456205 -29.31480073 -13.54699124 0 0 Z " fill="#FCFCFC" transform="translate(242,103)"/>
<path d="M0 0 C6.17047326 1.7354456 10.57877075 6.57877075 15 11 C15.31785583 13.05284119 15.31785583 13.05284119 15.41186523 15.62475586 C15.45030045 16.59369278 15.48873566 17.5626297 15.52833557 18.56092834 C15.55894577 19.62234543 15.58955597 20.68376251 15.62109375 21.77734375 C15.65883408 22.88552963 15.6965744 23.99371552 15.73545837 25.13548279 C16.14945304 38.60932454 16.10801527 52.083937 16.0625 65.5625 C16.041875 74.286875 16.02125 83.01125 16 92 C-11.39 92 -38.78 92 -67 92 C-65.18139128 88.36278256 -63.12058627 85.21092057 -60.75 81.9375 C-60.31526367 81.33317139 -59.88052734 80.72884277 -59.43261719 80.10620117 C-53.95313479 72.51224952 -48.38122777 64.9855966 -42.81445312 57.45556641 C-39.87205307 53.47350777 -36.93635163 49.48651946 -34 45.5 C-32.83594846 43.92056484 -31.67188595 42.34113777 -30.5078125 40.76171875 C-28.14656803 37.55736102 -25.78741454 34.35147783 -23.4296875 31.14453125 C-17.70984845 23.36730311 -11.97537421 15.60178583 -6.1875 7.875 C-5.67751465 7.19348877 -5.1675293 6.51197754 -4.64208984 5.80981445 C-1.12370334 1.12370334 -1.12370334 1.12370334 0 0 Z " fill="#FCFCFC" transform="translate(248,108)"/>
<path d="M0 0 C2.27395641 0.02240203 4.54797102 0.03947389 6.82200623 0.05145264 C12.78628519 0.09711269 18.74701602 0.2148391 24.7098999 0.34790039 C30.80285645 0.47100889 36.89639066 0.52553748 42.99023438 0.5859375 C54.9312403 0.71435273 66.86962118 0.91895557 78.80859375 1.171875 C79.215224 5.33476137 79.52408506 9.49952748 79.81640625 13.671875 C79.93218018 14.84492188 80.0479541 16.01796875 80.16723633 17.2265625 C80.7001373 25.80114994 80.7001373 25.80114994 78.17070007 29.69009399 C74.75561899 33.13089911 70.94705048 35.99593276 66.6875 38.3203125 C62.33265923 40.81822816 58.50230399 43.62700441 54.62109375 46.796875 C52.71311732 48.29362759 50.77596295 49.75409477 48.80859375 51.171875 C47.32552734 52.47125 47.32552734 52.47125 45.8125 53.796875 C43.08116294 55.28319086 41.98159201 55.21428183 38.91430664 54.46240234 C35.16795949 52.9745728 31.56146466 51.29881369 27.93359375 49.546875 C26.55183418 48.90594168 25.16857319 48.26823668 23.78393555 47.63354492 C21.55585703 46.61072388 19.32957363 45.58477646 17.10813904 44.54759216 C11.0318885 41.71102036 4.90756609 38.99731342 -1.2421875 36.32421875 C-2.16870117 35.92116516 -3.09521484 35.51811157 -4.04980469 35.10284424 C-5.90783044 34.29512862 -7.76600415 33.48775323 -9.62432861 32.6807251 C-14.03878058 30.76346927 -18.45118319 28.84176437 -22.859375 26.91015625 C-23.62888992 26.57628403 -24.39840485 26.2424118 -25.1912384 25.89842224 C-29.0300136 24.2127906 -32.64889956 22.43843257 -36.19140625 20.171875 C-35.36681539 18.59439684 -34.51356524 17.02969663 -33.58348083 15.51202393 C-32.10166112 13.1086167 -32.10166112 13.1086167 -30.78773499 10.17303467 C-23.75071607 -2.26345899 -12.97834805 -0.37536471 0 0 Z " fill="#FDFDFD" transform="translate(186.19140625,221.828125)"/>
<path d="M0 0 C1.62473998 3.08919171 2.83791452 6.23443871 4.0625 9.5 C9.28534117 22.07464105 20.61217476 36.57948082 33 43 C35.65683829 43.20401879 35.65683829 43.20401879 38 43 C38.495 45.475 38.495 45.475 39 48 C37.02 48.99 35.04 49.98 33 51 C33.45117188 51.64582031 33.90234375 52.29164063 34.3671875 52.95703125 C35 56 35 56 34.04003906 57.97412109 C32.47493651 60.27705771 30.8309907 62.48688399 29.125 64.6875 C27.97810695 66.20948556 26.8346901 67.7340989 25.6953125 69.26171875 C25.17984863 69.93162842 24.66438477 70.60153809 24.13330078 71.29174805 C22.81572335 72.93609822 22.81572335 72.93609822 23 75 C22.34 75 21.68 75 21 75 C21 74.34 21 73.68 21 73 C19.35 72.67 17.7 72.34 16 72 C16 72.66 16 73.32 16 74 C14.515 73.505 14.515 73.505 13 73 C13.56714722 72.2589502 13.56714722 72.2589502 14.14575195 71.50292969 C15.86819864 69.25210406 17.59035204 67.00105419 19.3125 64.75 C20.20485352 63.58404297 20.20485352 63.58404297 21.11523438 62.39453125 C21.69208984 61.64042969 22.26894531 60.88632813 22.86328125 60.109375 C23.65665894 59.07248535 23.65665894 59.07248535 24.46606445 58.01464844 C24.97226318 57.34981445 25.47846191 56.68498047 26 56 C26.55969482 55.31711914 27.11938965 54.63423828 27.69604492 53.93066406 C29.279848 51.97394365 29.279848 51.97394365 29 49 C27.44371977 47.49395636 27.44371977 47.49395636 25.3125 46.0625 C11.05564028 35.38109879 -4.25201084 21.22298177 -8 3 C-5.69 3 -3.38 3 -1 3 C-0.67 2.01 -0.34 1.02 0 0 Z " fill="#111111" transform="translate(128,168)"/>
<path d="M0 0 C0.66 0.99 1.32 1.98 2 3 C2 2.34 2 1.68 2 1 C3.65 1 5.3 1 7 1 C6.67 4.96 6.34 8.92 6 13 C5.67 13 5.34 13 5 13 C4.505 9.04 4.505 9.04 4 5 C3.05640625 5.76183594 2.1128125 6.52367187 1.140625 7.30859375 C-20.5606662 24.7803331 -20.5606662 24.7803331 -25 27 C-25.185625 25.824375 -25.185625 25.824375 -25.375 24.625 C-25.79117993 21.85942178 -25.79117993 21.85942178 -28 20 C-27.29822632 19.46427368 -27.29822632 19.46427368 -26.58227539 18.91772461 C-25.19148382 17.85576825 -23.80087426 16.79357349 -22.41040039 15.73120117 C-20.84358599 14.53421818 -19.27636495 13.33776727 -17.70874023 12.1418457 C-12.94998095 8.50718711 -8.22384431 4.83844951 -3.56640625 1.07421875 C-2 0 -2 0 0 0 Z " fill="#121212" transform="translate(260,254)"/>
<path d="M0 0 C1.32 1.65 2.64 3.3 4 5 C2.46524006 8.91230714 0.06356355 10.85010183 -3.1875 13.4375 C-4.1671875 14.21867187 -5.146875 14.99984375 -6.15625 15.8046875 C-9.38247464 18.29526202 -12.64392909 20.68804004 -16 23 C-16 22.01 -16 21.02 -16 20 C-16.20625 19.401875 -16.4125 18.80375 -16.625 18.1875 C-17.22451955 14.69030265 -16.70260527 13.15297271 -15 10 C-12.58477198 8.2575855 -10.09718076 6.82533096 -7.48828125 5.390625 C-4.74068547 3.85507697 -2.37646193 2.05960034 0 0 Z " fill="#101010" transform="translate(324,265)"/>
<path d="M0 0 C0.56203125 0.71542969 1.1240625 1.43085938 1.703125 2.16796875 C3.97236686 4.96592853 6.33051154 7.64394655 8.75 10.3125 C9.54921875 11.19550781 10.3484375 12.07851562 11.171875 12.98828125 C11.77515625 13.65214844 12.3784375 14.31601563 13 15 C12.01 15.495 12.01 15.495 11 16 C10.34 15.67 9.68 15.34 9 15 C8.34 16.32 7.68 17.64 7 19 C0.71465734 14.15504836 -3.52946118 8.5258255 -8 2 C-5 2 -5 2 -2.8125 4 C-2.214375 4.66 -1.61625 5.32 -1 6 C-1.020625 5.195625 -1.04125 4.39125 -1.0625 3.5625 C-1 1 -1 1 0 0 Z " fill="#151515" transform="translate(135,185)"/>
<path d="M0 0 C1.32 1.32 2.64 2.64 4 4 C3.67 4.66 3.34 5.32 3 6 C3.66 6.33 4.32 6.66 5 7 C2.36 10.63 -0.28 14.26 -3 18 C-5.31 17.01 -7.62 16.02 -10 15 C-9.08333333 13.625 -8.16666667 12.25 -7.25 10.875 C-6.70601562 10.05902344 -6.16203125 9.24304688 -5.6015625 8.40234375 C-3.734375 5.6015625 -1.8671875 2.80078125 0 0 Z " fill="#141414" transform="translate(242,103)"/>
<path d="M0 0 C3 4.38461538 3 4.38461538 3 7 C1.20856793 7.9795958 -0.58315304 8.9586633 -2.375 9.9375 C-3.37273437 10.48277344 -4.37046875 11.02804688 -5.3984375 11.58984375 C-6.92070346 12.4149759 -8.45128783 13.22564391 -10 14 C-9.67 11.36 -9.34 8.72 -9 6 C-9.99 5.67 -10.98 5.34 -12 5 C-10.37750059 4.16180842 -8.75191503 3.3295884 -7.125 2.5 C-6.22007812 2.0359375 -5.31515625 1.571875 -4.3828125 1.09375 C-2 0 -2 0 0 0 Z " fill="#0F0F0F" transform="translate(320,67)"/>
<path d="M0 0 C1.32 1.65 2.64 3.3 4 5 C2.5741914 8.45195767 0.90253666 10.1014256 -2.125 12.25 C-2.84945313 12.77078125 -3.57390625 13.2915625 -4.3203125 13.828125 C-4.87460937 14.21484375 -5.42890625 14.6015625 -6 15 C-5.67 12.69 -5.34 10.38 -5 8 C-5.99 7.67 -6.98 7.34 -8 7 C-5.4837822 4.39391727 -2.94865641 2.10618315 0 0 Z " fill="#171717" transform="translate(324,265)"/>
<path d="M0 0 C0.66 0.33 1.32 0.66 2 1 C1.67 3.31 1.34 5.62 1 8 C1.66 8 2.32 8 3 8 C2.34 9.65 1.68 11.3 1 13 C0.01 13 -0.98 13 -2 13 C-2.33 12.01 -2.66 11.02 -3 10 C-3.061875 10.598125 -3.12375 11.19625 -3.1875 11.8125 C-4.33938899 14.91373958 -6.06759592 15.64108103 -9 17 C-9.66 16.67 -10.32 16.34 -11 16 C-10.28972656 15.01257813 -9.57945312 14.02515625 -8.84765625 13.0078125 C-7.91919608 11.71359529 -6.99081475 10.41932152 -6.0625 9.125 C-5.59392578 8.47402344 -5.12535156 7.82304687 -4.64257812 7.15234375 C-2.12854419 3.69602161 -2.12854419 3.69602161 0 0 Z " fill="#161616" transform="translate(214,141)"/>
<path d="M0 0 C0.66 0 1.32 0 2 0 C2.66 0.99 3.32 1.98 4 3 C4 2.34 4 1.68 4 1 C5.65 1 7.3 1 9 1 C8.67 4.96 8.34 8.92 8 13 C7.67 13 7.34 13 7 13 C6.67 10.36 6.34 7.72 6 5 C3.69 6.65 1.38 8.3 -1 10 C-1 9.34 -1 8.68 -1 8 C-3.475 7.01 -3.475 7.01 -6 6 C-4 4 -2 2 0 0 Z " fill="#141414" transform="translate(258,254)"/>
<path d="M0 0 C1.15941038 3.47823115 0.70820884 5.45895578 0 9 C-0.99 9 -1.98 9 -3 9 C-2.01 10.32 -1.02 11.64 0 13 C-1.98 15.97 -1.98 15.97 -4 19 C-5.37115167 16.34339364 -6 14.93492106 -6 12 C-6.66 11.67 -7.32 11.34 -8 11 C-5.36 7.37 -2.72 3.74 0 0 Z " fill="#151515" transform="translate(202,158)"/>
<path d="M0 0 C4.50802601 1.25805377 7.4912812 2.90407165 11 6 C10.67 6.66 10.34 7.32 10 8 C8.3743193 7.69106068 6.74947252 7.3777305 5.125 7.0625 C4.22007812 6.88847656 3.31515625 6.71445313 2.3828125 6.53515625 C0 6 0 6 -2 5 C-1.125 1.125 -1.125 1.125 0 0 Z " fill="#0F0F0F" transform="translate(259,79)"/>
<path d="M0 0 C0.66 0.33 1.32 0.66 2 1 C1.67 2.65 1.34 4.3 1 6 C1.99 6.33 2.98 6.66 4 7 C2.52307692 11.67692308 2.52307692 11.67692308 -0.125 13.3125 C-1.053125 13.6528125 -1.053125 13.6528125 -2 14 C-2.33 13.67 -2.66 13.34 -3 13 C-2.94921875 11.07421875 -2.94921875 11.07421875 -2.6875 8.6875 C-2.60886719 7.90761719 -2.53023437 7.12773437 -2.44921875 6.32421875 C-1.98413721 3.91792729 -1.19341444 2.12866168 0 0 Z " fill="#141414" transform="translate(169,136)"/>
<path d="M0 0 C0.66 0.33 1.32 0.66 2 1 C1.38511719 1.45890625 0.77023438 1.9178125 0.13671875 2.390625 C-0.67152344 3.00421875 -1.47976562 3.6178125 -2.3125 4.25 C-3.11300781 4.85328125 -3.91351563 5.4565625 -4.73828125 6.078125 C-7.06378027 7.88600529 -7.06378027 7.88600529 -8.54296875 10.234375 C-9.02378906 10.81703125 -9.50460938 11.3996875 -10 12 C-14 12 -14 12 -16 11 C-10.89341984 6.87768132 -5.91301263 2.89616945 0 0 Z " fill="#191919" transform="translate(160,79)"/>
<path d="M0 0 C1.32 0.33 2.64 0.66 4 1 C3.25 7.75 3.25 7.75 1 10 C-1.0625 9.75 -1.0625 9.75 -3 9 C-3.33 8.34 -3.66 7.68 -4 7 C-2.35 6.67 -0.7 6.34 1 6 C0.01 5.34 -0.98 4.68 -2 4 C-1.34 2.68 -0.68 1.36 0 0 Z " fill="#070707" transform="translate(315,272)"/>
<path d="M0 0 C2.3792917 3.56893754 2.20555086 5.52688549 1.625 9.6875 C1.41875 10.450625 1.2125 11.21375 1 12 C0.01 12.495 0.01 12.495 -1 13 C-1 12.01 -1 11.02 -1 10 C-2.94009522 8.29467677 -2.94009522 8.29467677 -5 7 C-3.35 4.69 -1.7 2.38 0 0 Z " fill="#161616" transform="translate(185,181)"/>
<path d="M0 0 C0.33 0.66 0.66 1.32 1 2 C0.0625 4.625 0.0625 4.625 -1 7 C0.32 7.33 1.64 7.66 3 8 C3 8.99 3 9.98 3 11 C2.34 11 1.68 11 1 11 C1 10.34 1 9.68 1 9 C-0.65 8.67 -2.3 8.34 -4 8 C-4 8.66 -4 9.32 -4 10 C-4.99 9.67 -5.98 9.34 -7 9 C-4.69 6.03 -2.38 3.06 0 0 Z " fill="#1F1F1F" transform="translate(148,232)"/>
<path d="M0 0 C0.99 0.33 1.98 0.66 3 1 C2.34 1.66 1.68 2.32 1 3 C1.33 3.66 1.66 4.32 2 5 C1.34 5 0.68 5 0 5 C-0.33 5.99 -0.66 6.98 -1 8 C-1.33 7.67 -1.66 7.34 -2 7 C-2.66 7.66 -3.32 8.32 -4 9 C-4.33 7.35 -4.66 5.7 -5 4 C-2.6875 1.9375 -2.6875 1.9375 0 0 Z " fill="#0F0F0F" transform="translate(265,249)"/>
<path d="M0 0 C0 3 0 6 0 9 C-1.98 9.99 -1.98 9.99 -4 11 C-3.67 8.36 -3.34 5.72 -3 3 C-3.99 2.67 -4.98 2.34 -6 2 C-2.25 0 -2.25 0 0 0 Z " fill="#1B1B1B" transform="translate(314,70)"/>
<path d="M0 0 C2 3 2 3 1.625 5.1875 C1.41875 5.785625 1.2125 6.38375 1 7 C-0.65 7.33 -2.3 7.66 -4 8 C-4.33 6.35 -4.66 4.7 -5 3 C-3.35 3 -1.7 3 0 3 C0 2.01 0 1.02 0 0 Z " fill="#070707" transform="translate(129,295)"/>
<path d="M0 0 C1.53656962 2.4404341 2.02089707 3.70744102 1.8125 6.625 C1 9 1 9 -2 11 C-2 7.66666667 -2 4.33333333 -2 1 C-1.34 0.67 -0.68 0.34 0 0 Z " fill="#080808" transform="translate(188,180)"/>
<path d="M0 0 C3.55780196 0.60990891 6.6828589 1.5783681 10 3 C7 5 7 5 3.8125 4.625 C2.884375 4.41875 1.95625 4.2125 1 4 C0.67 2.68 0.34 1.36 0 0 Z " fill="#111111" transform="translate(202,266)"/>
<path d="M0 0 C0.66 0 1.32 0 2 0 C2 0.66 2 1.32 2 2 C2.66 2 3.32 2 4 2 C3.67 3.32 3.34 4.64 3 6 C0.03 5.505 0.03 5.505 -3 5 C-1.625 2.5 -1.625 2.5 0 0 Z " fill="#131313" transform="translate(131,255)"/>
<path d="M0 0 C1.65 0.99 3.3 1.98 5 3 C4.67 5.31 4.34 7.62 4 10 C3.01 9.67 2.02 9.34 1 9 C1.20625 8.2575 1.4125 7.515 1.625 6.75 C2.04408751 3.67669159 1.61949011 2.57213134 0 0 Z " fill="#050505" transform="translate(130,181)"/>
<path d="M0 0 C0.33 0 0.66 0 1 0 C1 2.31 1 4.62 1 7 C-0.98 7 -2.96 7 -5 7 C-4.19152271 5.83054208 -3.37810888 4.66449539 -2.5625 3.5 C-2.11003906 2.8503125 -1.65757812 2.200625 -1.19140625 1.53125 C-0.79824219 1.0259375 -0.40507812 0.520625 0 0 Z " fill="#161616" transform="translate(193,171)"/>
<path d="M0 0 C1.32 1.65 2.64 3.3 4 5 C2.68 6.32 1.36 7.64 0 9 C-0.185625 7.824375 -0.185625 7.824375 -0.375 6.625 C-0.79117993 3.85942178 -0.79117993 3.85942178 -3 2 C-2.01 1.34 -1.02 0.68 0 0 Z " fill="#161616" transform="translate(235,272)"/>
<path d="M0 0 C2.16874252 0.50603992 3.99967627 0.99983813 6 2 C5.67 2.99 5.34 3.98 5 5 C3.35 5 1.7 5 0 5 C0 3.35 0 1.7 0 0 Z " fill="#060606" transform="translate(251,260)"/>
<path d="M0 0 C2.475 0.495 2.475 0.495 5 1 C4.01 2.485 4.01 2.485 3 4 C2.61500109 5.65549531 2.27206865 7.3222433 2 9 C0.14223235 5.86501708 -0.20140476 3.62528568 0 0 Z " fill="#0A0A0A" transform="translate(194,170)"/>
<path d="M0 0 C2.875 0.3125 2.875 0.3125 6 1 C6.66 1.99 7.32 2.98 8 4 C5 5 5 5 2.3125 3.6875 C1.549375 3.130625 0.78625 2.57375 0 2 C0 1.34 0 0.68 0 0 Z " fill="#1B1B1B" transform="translate(199,299)"/>
<path d="M0 0 C1.32 0.66 2.64 1.32 4 2 C3.67 3.65 3.34 5.3 3 7 C1.68 6.67 0.36 6.34 -1 6 C-0.67 4.02 -0.34 2.04 0 0 Z " fill="#060606" transform="translate(155,223)"/>
<path d="M0 0 C1.32 0.33 2.64 0.66 4 1 C4.625 2.875 4.625 2.875 5 5 C4.34 5.66 3.68 6.32 3 7 C2.34 6.67 1.68 6.34 1 6 C0.375 2.9375 0.375 2.9375 0 0 Z " fill="#090909" transform="translate(238,110)"/>
<path d="M0 0 C0.66 1.32 1.32 2.64 2 4 C0.68 4.33 -0.64 4.66 -2 5 C-2 2 -2 2 0 0 Z M-5 4 C-4.34 4.33 -3.68 4.66 -3 5 C-3.99 5 -4.98 5 -6 5 C-5.67 4.67 -5.34 4.34 -5 4 Z " fill="#1A1A1A" transform="translate(250,260)"/>
<path d="M0 0 C1.65 0 3.3 0 5 0 C4.67 3.96 4.34 7.92 4 12 C3.67 12 3.34 12 3 12 C3 9.03 3 6.06 3 3 C2.34 3 1.68 3 1 3 C0.67 2.01 0.34 1.02 0 0 Z " fill="#252525" transform="translate(262,255)"/>
<path d="M0 0 C1.32 0.33 2.64 0.66 4 1 C2.95125002 3.62187494 2.35068687 4.79371361 -0.125 6.25 C-0.74375 6.4975 -1.3625 6.745 -2 7 C-2.33 6.01 -2.66 5.02 -3 4 C-2.505 3.525625 -2.01 3.05125 -1.5 2.5625 C0.11542197 1.24076302 0.11542197 1.24076302 0 0 Z " fill="#030303" transform="translate(268,250)"/>
<path d="M0 0 C0.99 0.33 1.98 0.66 3 1 C3.6875 3.0625 3.6875 3.0625 4 5 C3.01 5.495 3.01 5.495 2 6 C1.01 5.67 0.02 5.34 -1 5 C-0.67 3.35 -0.34 1.7 0 0 Z " fill="#080808" transform="translate(148,234)"/>
<path d="M0 0 C0.625 1.8125 0.625 1.8125 1 4 C0.01 5.485 0.01 5.485 -1 7 C-1 6.34 -1 5.68 -1 5 C-1.99 5 -2.98 5 -4 5 C-2.25 1.125 -2.25 1.125 0 0 Z " fill="#141414" transform="translate(298,79)"/>
<path d="M0 0 C0.99 1.32 1.98 2.64 3 4 C2.01 4.66 1.02 5.32 0 6 C-0.99 5.01 -1.98 4.02 -3 3 C-2.01 2.01 -1.02 1.02 0 0 Z " fill="#101010" transform="translate(324,265)"/>
<path d="M0 0 C0.99 0.33 1.98 0.66 3 1 C1 4 1 4 -2.125 4.6875 C-3.07375 4.790625 -4.0225 4.89375 -5 5 C-3.35 3.35 -1.7 1.7 0 0 Z " fill="#161616" transform="translate(241,267)"/>
<path d="M0 0 C1.98 0.66 3.96 1.32 6 2 C6 2.66 6 3.32 6 4 C4.125 4.625 4.125 4.625 2 5 C1.34 4.34 0.68 3.68 0 3 C0 2.01 0 1.02 0 0 Z " fill="#141414" transform="translate(165,249)"/>
<path d="M0 0 C0.33 0.66 0.66 1.32 1 2 C1.99 2.33 2.98 2.66 4 3 C3.67 3.66 3.34 4.32 3 5 C2.67 5 2.34 5 2 5 C1.67 5.66 1.34 6.32 1 7 C0.01 5.02 -0.98 3.04 -2 1 C-1.34 0.67 -0.68 0.34 0 0 Z " fill="#030303" transform="translate(266,216)"/>
<path d="M0 0 C0.33 0 0.66 0 1 0 C1.125 2.875 1.125 2.875 1 6 C0.34 6.66 -0.32 7.32 -1 8 C-1.99 7.34 -2.98 6.68 -4 6 C-2.69593116 3.98079663 -1.36176581 1.98075027 0 0 Z " fill="#1F1F1F" transform="translate(242,103)"/>
<path d="M0 0 C0.66 0.33 1.32 0.66 2 1 C0.35 2.98 -1.3 4.96 -3 7 C-4.32 6.67 -5.64 6.34 -7 6 C-4.69 4.02 -2.38 2.04 0 0 Z " fill="#E2E2E2" transform="translate(299,295)"/>
<path d="M0 0 C5.75 1.75 5.75 1.75 8 4 C6.25 4.6875 6.25 4.6875 4 5 C1.75 3.6875 1.75 3.6875 0 2 C0 1.34 0 0.68 0 0 Z " fill="#191919" transform="translate(217,272)"/>
<path d="M0 0 C-0.33 1.98 -0.66 3.96 -1 6 C-1.99 5.67 -2.98 5.34 -4 5 C-4.6875 2.9375 -4.6875 2.9375 -5 1 C-2 0 -2 0 0 0 Z " fill="#080808" transform="translate(241,271)"/>
<path d="M0 0 C1.32 0.66 2.64 1.32 4 2 C2.68 3.65 1.36 5.3 0 7 C-0.93423645 3.98968256 -1.04449911 3.13349732 0 0 Z " fill="#151515" transform="translate(132,126)"/>
<path d="M0 0 C1.65 0.33 3.3 0.66 5 1 C3 4 3 4 0.375 4.6875 C-0.800625 4.8421875 -0.800625 4.8421875 -2 5 C-1.34 4.34 -0.68 3.68 0 3 C0 2.01 0 1.02 0 0 Z " fill="#111111" transform="translate(245,73)"/>
<path d="M0 0 C0.66 0 1.32 0 2 0 C3.6875 2.375 3.6875 2.375 5 5 C4.67 5.66 4.34 6.32 4 7 C3.01 6.67 2.02 6.34 1 6 C-0.1875 3.4375 -0.1875 3.4375 -1 1 C-0.67 0.67 -0.34 0.34 0 0 Z " fill="#242424" transform="translate(318,67)"/>
</svg>
