<?xml version="1.0" encoding="UTF-8"?>
<svg version="1.1" xmlns="http://www.w3.org/2000/svg" width="320" height="320">
<path d="M0 0 C105.6 0 211.2 0 320 0 C320 105.6 320 211.2 320 320 C214.4 320 108.8 320 0 320 C0 214.4 0 108.8 0 0 Z " fill="#FEFEFE" transform="translate(0,0)"/>
<path d="M0 0 C1.86450195 1.72607422 1.86450195 1.72607422 3.42578125 4.1796875 C4.01182129 5.09459961 4.59786133 6.00951172 5.20166016 6.95214844 C8.33994956 12.27096529 11.3058054 17.66329311 14.1875 23.125 C14.79013672 24.25292969 15.39277344 25.38085938 16.01367188 26.54296875 C18.5120494 31.23256872 20.97365918 35.91557405 23.23828125 40.72265625 C24.69025644 44.23214416 24.69025644 44.23214416 28 45.3125 C38.24699381 45.60074745 49.02123458 37.2102697 57.25 32 C58.36890625 31.30132812 59.4878125 30.60265625 60.640625 29.8828125 C64.59854892 27.40911005 68.55344019 24.93177441 72.47729492 22.40429688 C77.71287678 19.05104413 77.71287678 19.05104413 80.8125 18.5 C83.47771556 19.10919213 84.23875518 19.94595452 86 22 C89.05765577 29.72372226 90.71843619 37.88250976 92.61587524 45.95199585 C95.56412286 58.44903371 98.65802067 70.87647822 102.3125 83.1875 C102.62533936 84.24694824 102.93817871 85.30639648 103.26049805 86.39794922 C104.9585252 92.00066886 106.88406681 97.38410039 109.25463867 102.73950195 C110.09012587 105.27332964 110.1324143 107.34908333 110 110 C108.68 110.33 107.36 110.66 106 111 C105.3897957 109.54418264 104.78728154 108.08514232 104.1875 106.625 C103.85105469 105.81289062 103.51460938 105.00078125 103.16796875 104.1640625 C100.29538765 96.38215384 98.25344235 88.3383221 96.1875 80.3125 C95.80174805 78.8279834 95.80174805 78.8279834 95.40820312 77.31347656 C94.08841555 72.23181272 92.7816945 67.14703165 91.48828125 62.05859375 C88.88153592 51.85843423 86.11350199 41.76584245 82.828125 31.76074219 C81 26.18053805 81 26.18053805 81 24 C67.87040415 28.5983838 56.30982396 36.33261494 44.66040039 43.78710938 C32.31867351 51.67705955 32.31867351 51.67705955 27.9375 52.75 C22.21132017 51.28799664 19.26088876 44.55704074 16.359375 39.6953125 C15.48393014 38.17511657 14.61431062 36.6515538 13.75 35.125 C13.2854541 34.31434082 12.8209082 33.50368164 12.34228516 32.66845703 C8.52706714 25.98892248 4.78530044 19.26773149 1.08496094 12.52392578 C-0.65992842 9.05091063 -0.65992842 9.05091063 -3 6 C-8.85104762 5.23918266 -12.67237044 7.51026928 -17.625 10.25 C-18.86636719 10.92119873 -18.86636719 10.92119873 -20.1328125 11.60595703 C-38.53846124 21.66461635 -56.4596219 32.82674116 -73.81420898 44.60058594 C-80.25420122 48.96710907 -86.71082541 53.05885698 -93.5625 56.75 C-111.28937034 66.32663067 -128.37458555 77.34287348 -143.78125 90.34765625 C-144.6578125 91.07855469 -145.534375 91.80945313 -146.4375 92.5625 C-147.17871094 93.20316406 -147.91992188 93.84382813 -148.68359375 94.50390625 C-151.45201459 96.29194197 -153.74983939 96.65861622 -157 97 C-156.9296875 94.84375 -156.9296875 94.84375 -156 92 C-153.74345207 89.95406321 -151.5985333 88.24267013 -149.125 86.5 C-148.05511841 85.72450806 -148.05511841 85.72450806 -146.96362305 84.93334961 C-144.65466992 83.27089337 -142.32969242 81.63324106 -140 80 C-139.2476709 79.46777832 -138.4953418 78.93555664 -137.72021484 78.38720703 C-122.99207227 67.99739069 -107.81807767 58.2140861 -92 49.5625 C-85.57522772 46.04727653 -79.5070614 42.09494954 -73.4375 38 C-65.10265024 32.37880498 -56.72162025 26.99869964 -48 22 C-47.07670898 21.46874512 -46.15341797 20.93749023 -45.20214844 20.39013672 C-34.71434031 14.37599793 -24.20676286 8.37894473 -13.3125 3.125 C-12.64879395 2.79749756 -11.98508789 2.46999512 -11.30126953 2.13256836 C-7.34580627 0.28768098 -4.34335427 -0.4920206 0 0 Z " fill="#292929" transform="translate(196,100)"/>
<path d="M0 0 C0.99 0 1.98 0 3 0 C4.4280199 2.85603979 4.22047516 5.3794968 4.31640625 8.5703125 C4.33723267 9.23582626 4.35805908 9.90134003 4.3795166 10.58702087 C4.44575153 12.76622893 4.50449296 14.94555851 4.5625 17.125 C4.58367889 17.86265594 4.60485779 18.60031189 4.62667847 19.36032104 C5.00591652 32.57442512 5.12491141 45.78052889 5 59 C16.75363912 51.19904346 16.75363912 51.19904346 23 39 C22.21625 39.020625 21.4325 39.04125 20.625 39.0625 C18 39 18 39 16 38 C15.01 40.31 14.02 42.62 13 45 C11.35 45 9.7 45 8 45 C6.63115642 40.48281619 7.52924754 37.41225737 9 33 C7.68 32.01 6.36 31.02 5 30 C5.33 28.68 5.66 27.36 6 26 C7.75 25.3125 7.75 25.3125 10 25 C12.25 26.4375 12.25 26.4375 14 28 C14.268125 27.195625 14.53625 26.39125 14.8125 25.5625 C15.204375 24.716875 15.59625 23.87125 16 23 C16.99 22.67 17.98 22.34 19 22 C18.06652642 20.24784894 17.1280468 18.49836437 16.1875 16.75 C15.66542969 15.77546875 15.14335937 14.8009375 14.60546875 13.796875 C11.90617141 9.09444947 10.26017242 6.70600187 5 5 C5.33 3.35 5.66 1.7 6 0 C10.92193811 0.44744892 14.51314234 2.62442503 18 6 C26.62722988 17.34320966 30.13342701 28.78987028 29 43 C27.2284733 51.25862809 21.39224068 55.9539762 15 61 C14.12085938 61.69996094 13.24171875 62.39992187 12.3359375 63.12109375 C7.50764327 66.74596117 5.12517173 68.16326092 -1 68 C-1.02312611 59.28155997 -1.04091646 50.56313044 -1.05181217 41.84466648 C-1.05704041 37.79674258 -1.06413699 33.74883959 -1.07543945 29.70092773 C-1.08627043 25.79764029 -1.09227728 21.89437301 -1.09487724 17.9910717 C-1.09673111 16.49866353 -1.100351 15.00625652 -1.10573006 13.51385689 C-1.11294331 11.43051861 -1.11399083 9.34726469 -1.11352539 7.26391602 C-1.115746 6.07588882 -1.11796661 4.88786163 -1.12025452 3.66383362 C-1 1 -1 1 0 0 Z " fill="#262525" transform="translate(144,173)"/>
<path d="M0 0 C0.66 0 1.32 0 2 0 C2.061875 0.61875 2.12375 1.2375 2.1875 1.875 C2.455625 2.57625 2.72375 3.2775 3 4 C3.77601563 4.28230469 4.55203125 4.56460938 5.3515625 4.85546875 C8.52978418 6.22894803 9.39974372 7.51861643 11.1875 10.4375 C11.67605469 11.21996094 12.16460937 12.00242188 12.66796875 12.80859375 C13.10753906 13.53175781 13.54710937 14.25492188 14 15 C14.99 16.485 14.99 16.485 16 18 C16 21 16 21 14.0625 23.0625 C13.381875 23.701875 12.70125 24.34125 12 25 C11.67 25.66 11.34 26.32 11 27 C10.13375 26.4740625 10.13375 26.4740625 9.25 25.9375 C6.64198224 24.85082593 5.60582371 25.06934867 3 26 C3.27617533 27.94074861 3.27617533 27.94074861 4 30 C4.99 30.66 5.98 31.32 7 32 C6.855625 32.69867188 6.71125 33.39734375 6.5625 34.1171875 C6.2840625 35.48230469 6.2840625 35.48230469 6 36.875 C5.814375 37.77992188 5.62875 38.68484375 5.4375 39.6171875 C4.93980405 41.92407903 4.93980405 41.92407903 5 44 C7.42267086 44.05167527 7.42267086 44.05167527 10 43 C11.86983745 39.52692672 11.86983745 39.52692672 13 36 C15.31 36.66 17.62 37.32 20 38 C18.60882054 46.81080324 14.14903172 50.75276089 7.1875 55.9375 C4 58 4 58 2 58 C1.34 38.86 0.68 19.72 0 0 Z " fill="#F0ECEC" transform="translate(147,174)"/>
<path d="M0 0 C0.99 0.66 1.98 1.32 3 2 C3.29296875 4.6015625 3.29296875 4.6015625 3.1875 7.625 C3.16042969 8.62789062 3.13335937 9.63078125 3.10546875 10.6640625 C3.07066406 11.43492187 3.03585938 12.20578125 3 13 C3.66 13 4.32 13 5 13 C4.67 14.65 4.34 16.3 4 18 C-0.75 18.125 -0.75 18.125 -3 17 C-3.99 19.31 -4.98 21.62 -6 24 C-7.65 24 -9.3 24 -11 24 C-12.36884358 19.48281619 -11.47075246 16.41225737 -10 12 C-11.32 11.01 -12.64 10.02 -14 9 C-13.67 7.68 -13.34 6.36 -13 5 C-11.25 4.3125 -11.25 4.3125 -9 4 C-6.75 5.4375 -6.75 5.4375 -5 7 C-4.731875 6.21625 -4.46375 5.4325 -4.1875 4.625 C-3 2 -3 2 0 0 Z " fill="#E72A2F" transform="translate(163,194)"/>
<path d="M0 0 C5 0 5 0 6.6953125 1.57421875 C7.40300781 2.62029297 7.40300781 2.62029297 8.125 3.6875 C8.62515625 4.41710937 9.1253125 5.14671875 9.640625 5.8984375 C10.08921875 6.59195313 10.5378125 7.28546875 11 8 C11.61875 8.928125 12.2375 9.85625 12.875 10.8125 C14 13 14 13 14 16 C12.70896357 17.3743291 11.3743291 18.70896357 10 20 C9.67 20.66 9.34 21.32 9 22 C8.443125 21.67 7.88625 21.34 7.3125 21 C4.65502839 19.66924071 4.65502839 19.66924071 0 20 C0 13.4 0 6.8 0 0 Z " fill="#FCFAFA" transform="translate(149,179)"/>
<path d="M0 0 C0.66 0.33 1.32 0.66 2 1 C0.77405683 4.67782952 -0.19909928 5.00324675 -3.47265625 6.91796875 C-4.37177734 7.44970703 -5.27089844 7.98144531 -6.19726562 8.52929688 C-7.14279297 9.07650391 -8.08832031 9.62371094 -9.0625 10.1875 C-10.01189453 10.74630859 -10.96128906 11.30511719 -11.93945312 11.88085938 C-14.28843003 13.26191615 -16.64194922 14.63451305 -19 16 C-19.33 15.34 -19.66 14.68 -20 14 C-16.46725159 10.05109012 -12.33362504 7.45918551 -7.875 4.6875 C-7.14667969 4.22021484 -6.41835937 3.75292969 -5.66796875 3.27148438 C-4.97058594 2.83513672 -4.27320313 2.39878906 -3.5546875 1.94921875 C-2.92030762 1.55049561 -2.28592773 1.15177246 -1.63232422 0.7409668 C-0.82432373 0.37418823 -0.82432373 0.37418823 0 0 Z " fill="#343434" transform="translate(259,128)"/>
</svg>
