 <svg  version="1.0" xmlns="http://www.w3.org/2000/svg"  width="300.000000pt" height="300.000000pt" viewBox="0 0 300.000000 300.000000"  preserveAspectRatio="xMidYMid meet">  <g transform="translate(0.000000,300.000000) scale(0.100000,-0.100000)" fill="#ffffff" stroke="none"> <path d="M1730 2036 c-110 -48 -376 -201 -568 -325 -92 -60 -210 -132 -262 -161 -162 -90 -540 -353 -540 -377 0 -23 28 -26 58 -8 15 10 52 39 82 65 77 66 279 201 451 300 79 46 171 102 204 125 168 118 563 349 618 361 37 8 48 -5 113 -131 60 -114 149 -263 177 -293 30 -32 62 -24 151 36 97 66 287 179 331 198 20 8 40 12 45 9 13 -8 44 -113 134 -450 88 -331 98 -359 120 -363 30 -6 29 28 -7 121 -19 51 -68 220 -107 377 -40 157 -80 301 -89 320 -29 62 -55 55 -239 -64 -98 -64 -257 -146 -283 -146 -33 0 -55 17 -69 52 -8 18 -52 102 -99 187 -81 145 -120 202 -138 200 -4 0 -42 -15 -83 -33z"/> <path d="M1345 1369 c-4 -5 -5 -149 -3 -319 2 -258 5 -311 17 -315 17 -7 94 44 173 115 73 65 93 114 85 208 -4 38 -13 89 -21 114 -21 70 -82 155 -133 185 -44 25 -46 26 -59 8 -12 -16 -14 -17 -20 -2 -7 19 -29 22 -39 6z m86 -49 c9 0 29 -19 44 -42 15 -24 40 -61 55 -83 17 -27 27 -56 28 -84 1 -24 6 -49 12 -56 15 -18 -16 -105 -51 -141 -17 -18 -50 -46 -74 -63 l-42 -30 -7 106 c-11 186 -8 419 6 405 7 -7 19 -12 29 -12z m-41 -511 c0 -7 9 -9 23 -6 l22 6 -24 -20 c-31 -25 -38 -24 -38 6 0 14 3 25 8 25 5 0 9 -5 9 -11z"/> <path d="M1491 1140 c-16 -27 -20 -29 -31 -15 -7 8 -20 15 -30 15 -29 0 -32 -29 -6 -55 23 -23 24 -26 10 -55 -20 -40 -15 -75 11 -75 13 0 26 13 38 38 15 32 20 37 32 27 8 -7 23 -9 32 -6 15 6 15 8 3 17 -13 8 -13 10 0 18 12 9 12 11 -4 17 -13 5 -16 13 -12 30 8 31 -8 31 -22 0 -7 -17 -7 -27 1 -35 8 -8 7 -11 -5 -11 -9 0 -26 -12 -38 -27 l-21 -28 7 25 c4 14 8 30 11 35 2 6 -6 21 -18 34 l-22 23 22 -7 c28 -9 57 2 65 23 3 9 9 23 12 30 12 26 -17 11 -35 -18z"/> </g> </svg> 