<?xml version="1.0" encoding="UTF-8"?>
<svg version="1.1" xmlns="http://www.w3.org/2000/svg" width="275" height="289">
<path d="M0 0 C90.75 0 181.5 0 275 0 C275 95.37 275 190.74 275 289 C184.25 289 93.5 289 0 289 C0 193.63 0 98.26 0 0 Z " fill="#FEFEFE" transform="translate(0,0)"/>
<path d="M0 0 C-2.00286169 4.71712235 -5.53826633 7.97271538 -9.00390625 11.66015625 C-11.17996121 13.91467193 -11.17996121 13.91467193 -12 17 C-12.66 17 -13.32 17 -14 17 C-14.30744141 18.17369141 -14.30744141 18.17369141 -14.62109375 19.37109375 C-15.02521484 20.88896484 -15.02521484 20.88896484 -15.4375 22.4375 C-15.70433594 23.44683594 -15.97117188 24.45617187 -16.24609375 25.49609375 C-17 28 -17 28 -18 29 C-18.10931467 30.70847467 -18.14853944 32.42146674 -18.16062927 34.13339233 C-18.1706749 35.24636688 -18.18072052 36.35934143 -18.19107056 37.50604248 C-18.19690155 38.73816467 -18.20273254 39.97028687 -18.20874023 41.23974609 C-18.21852402 42.52920135 -18.2283078 43.81865662 -18.23838806 45.14718628 C-18.26984606 49.4392392 -18.29006143 53.73131185 -18.30859375 58.0234375 C-18.31353973 59.11947949 -18.31353973 59.11947949 -18.31858563 60.23766375 C-18.34939212 67.133921 -18.37609466 74.0301826 -18.39300442 80.92648888 C-18.41486238 89.73750544 -18.4567053 98.54790869 -18.52644199 107.35868013 C-18.57382864 113.55754342 -18.5979582 119.75624225 -18.6052013 125.9552809 C-18.61013959 129.65424364 -18.62504138 133.35251629 -18.6649456 137.05128098 C-18.70900154 141.18999376 -18.70488292 145.32736845 -18.69702148 149.46630859 C-18.71702209 150.67818848 -18.73702271 151.89006836 -18.75762939 153.13867188 C-18.68667043 161.49266144 -16.63070984 167.05946064 -12 174 C-8.99577268 173.40170049 -7.93539234 172.94508349 -5.5 170.875 C-3 169 -3 169 -0.8125 169.125 C1 170 1 170 3 172 C2.88495337 174.99760374 1.94258212 176.06133755 -0.1171875 178.26171875 C-1.02726563 179.06222656 -1.93734375 179.86273438 -2.875 180.6875 C-3.36460205 181.12102783 -3.8542041 181.55455566 -4.35864258 182.0012207 C-8.61961969 185.74480804 -13.00052421 189.34127892 -17.43359375 192.87890625 C-19.8310266 194.86034619 -22.02255128 196.95763661 -24.25 199.125 C-27.04644682 201.56833134 -27.69637832 201.97336652 -31.5625 202.3125 C-41.83742154 198.38934814 -45.50996316 189.40327256 -50 180 C-51.57567208 176.40565538 -52.22521397 173.94124446 -52 170 C-57.08382654 172.77655142 -61.66103272 175.84949463 -66.25 179.375 C-67.64383285 180.43451316 -69.03839789 181.49306359 -70.43359375 182.55078125 C-71.16690918 183.10717285 -71.90022461 183.66356445 -72.65576172 184.23681641 C-77.66064207 188.00116195 -82.72824639 191.68207127 -87.79199219 195.36669922 C-88.55801758 195.92760254 -89.32404297 196.48850586 -90.11328125 197.06640625 C-90.79173096 197.56084229 -91.47018066 198.05527832 -92.16918945 198.56469727 C-94.04099758 199.95865505 -94.04099758 199.95865505 -95.60620117 201.70288086 C-96.06615479 202.13093018 -96.5261084 202.55897949 -97 203 C-99.1875 202.6875 -99.1875 202.6875 -101 202 C-101 201.34 -101 200.68 -101 200 C-101.77859375 199.7834375 -102.5571875 199.566875 -103.359375 199.34375 C-108.26851514 197.53179269 -112.68272732 195.03768196 -117.25 192.5 C-118.70067871 191.70783081 -118.70067871 191.70783081 -120.18066406 190.8996582 C-124.87047606 188.33042004 -129.51639 185.71425513 -134.09375 182.94921875 C-134.88233398 182.48257813 -135.67091797 182.0159375 -136.48339844 181.53515625 C-137.94751207 180.66463629 -139.39988291 179.7739105 -140.83691406 178.859375 C-146.41086005 175.57583367 -150.72889321 175.79048005 -157 177 C-158.69245726 182.07737179 -158.31217869 186.91530758 -157 192 C-156.45026178 198.26701571 -156.45026178 198.26701571 -158.5 201 C-162.17263882 202.46905553 -165.24877734 202.16279938 -169 201 C-171.49632136 198.89372885 -171.89393438 197.55684451 -172.5 194.375 C-171.89592837 190.29751649 -170.35462481 187.44734034 -168.41796875 183.83984375 C-166.89391124 180.78753023 -165.76461092 177.7143843 -164.625 174.5 C-162.33541896 168.37264503 -159.38813506 162.89658396 -155 158 C-154.34 158 -153.68 158 -153 158 C-152.90323975 157.28432861 -152.80647949 156.56865723 -152.70678711 155.83129883 C-151.89010309 152.55976704 -150.58808823 150.48153632 -148.69140625 147.69921875 C-147.69463867 146.23452148 -147.69463867 146.23452148 -146.67773438 144.74023438 C-145.97970703 143.73283203 -145.28167969 142.72542969 -144.5625 141.6875 C-143.86833984 140.66076172 -143.17417969 139.63402344 -142.45898438 138.57617188 C-138.60317447 132.95855919 -138.60317447 132.95855919 -137 131 C-136.34 131 -135.68 131 -135 131 C-135 130.34 -135 129.68 -135 129 C-135.721875 128.773125 -136.44375 128.54625 -137.1875 128.3125 C-145.65362199 124.36164307 -152.30058123 113.83236461 -157 106 C-157 105.34 -157 104.68 -157 104 C-157.66 104 -158.32 104 -159 104 C-159.71468335 102.09417774 -160.42888586 100.18817374 -161.140625 98.28125 C-161.68347242 96.84023684 -162.23449996 95.402255 -162.796875 93.96875 C-163.17585938 92.99421875 -163.17585938 92.99421875 -163.5625 92 C-163.79066406 91.4225 -164.01882812 90.845 -164.25390625 90.25 C-166.68868579 82.90741876 -167.28581444 76.51724744 -167.1875 68.8125 C-167.18685547 67.84119141 -167.18621094 66.86988281 -167.18554688 65.86914062 C-167.15811508 61.42214205 -166.97493047 57.35436526 -166 53 C-165.34 53 -164.68 53 -164 53 C-163.9175 51.865625 -163.835 50.73125 -163.75 49.5625 C-163.15436286 44.5929304 -161.21237727 40.4453348 -159 36 C-158.34 36 -157.68 36 -157 36 C-156.89816406 35.41863281 -156.79632813 34.83726563 -156.69140625 34.23828125 C-153.8306119 24.97706564 -141.76312232 16.9955853 -133.75390625 12.41015625 C-119.60266207 5.16391632 -104.92684115 2.41553627 -89.125 2.5 C-88.46814209 2.50309174 -87.81128418 2.50618347 -87.13452148 2.5093689 C-70.19207659 2.65048739 -58.12078966 7.4977569 -43.35742188 15.42895508 C-42.01260742 16.14088013 -42.01260742 16.14088013 -40.640625 16.8671875 C-39.84172852 17.30144043 -39.04283203 17.73569336 -38.21972656 18.18310547 C-35.6373332 19.13346713 -34.52714055 19.00594253 -32 18 C-30.36981015 16.62018669 -30.36981015 16.62018669 -28.875 14.875 C-24.73231215 10.52607444 -19.98885653 7.30555354 -15 4 C-14.01 3.34 -13.02 2.68 -12 2 C-10.09765625 1.3671875 -10.09765625 1.3671875 -8.0625 0.875 C-7.39347656 0.70742188 -6.72445312 0.53984375 -6.03515625 0.3671875 C-4 0 -4 0 0 0 Z " fill="#060606" transform="translate(233,45)"/>
<path d="M0 0 C1.27738037 -0.00809692 1.27738037 -0.00809692 2.58056641 -0.01635742 C7.64390129 0.04056179 11.90427933 0.69725978 16.75 2.3125 C17.63945312 2.55871094 18.52890625 2.80492188 19.4453125 3.05859375 C23.94550364 4.33919476 27.86903252 5.59582277 31.75 8.3125 C30.13115641 12.13885757 28.3293345 16.04898212 24.75 18.3125 C20.69514833 18.57185869 16.76529025 17.85096667 12.75 17.3125 C-0.08291075 16.33090503 -9.92193594 19.22810633 -20.40625 26.73046875 C-25.25565203 30.89150227 -26.38975457 34.9869548 -27 41.25 C-27.0998795 42.93660155 -27.18893481 44.62404753 -27.25 46.3125 C-26.54875 45.590625 -25.8475 44.86875 -25.125 44.125 C-20.19653617 39.21053749 -16.11040541 35.20630109 -8.8125 35.0625 C-2.70432268 35.09858967 2.91282765 36.62754303 8.75 38.3125 C8.14097864 42.49307033 5.76899403 45.59708658 3.4375 49 C2.77524414 49.98033203 2.77524414 49.98033203 2.09960938 50.98046875 C-1.77859956 56.69230785 -5.77177895 62.32243496 -9.76879883 67.95141602 C-13.16035382 72.73791565 -16.48915875 77.56097084 -19.75 82.4375 C-20.14703125 83.02853516 -20.5440625 83.61957031 -20.953125 84.22851562 C-23.56943534 88.16642108 -25.94225593 92.19002992 -28.25 96.3125 C-30.4140625 96.61328125 -30.4140625 96.61328125 -33.25 96.3125 C-45.14709159 87.24052898 -54.41791952 72.98555898 -56.56884766 58.10693359 C-57.84444983 45.38045209 -55.68164057 33.11369236 -48.01611328 22.62402344 C-42.28935323 15.675814 -35.03533344 10.68939182 -27.25 6.3125 C-26.26 5.735 -25.27 5.1575 -24.25 4.5625 C-16.11688092 1.17370039 -8.7780256 0.03440794 0 0 Z " fill="#FAFAFA" transform="translate(132.25,71.6875)"/>
<path d="M0 0 C3 1 3 1 4.13885498 2.75863647 C7.36788282 10.42829426 7.68944967 17.74388893 7.828125 25.9765625 C7.86562667 27.39720967 7.90477909 28.81781413 7.94549561 30.2383728 C8.04732824 33.94352816 8.12700492 37.64882736 8.20178223 41.35461426 C8.29659393 45.81892554 8.41943463 50.28254625 8.53747559 54.74629211 C8.71291126 61.49724298 8.85313544 68.24809513 9 75 C-10.8 75 -30.6 75 -51 75 C-51 74.34 -51 73.68 -51 73 C-50.34 73 -49.68 73 -49 73 C-48.92265625 72.30132812 -48.8453125 71.60265625 -48.765625 70.8828125 C-47.81064242 67.28701076 -45.95860495 64.79143113 -43.75 61.875 C-42.84046954 60.63947477 -41.93303026 59.40240825 -41.02734375 58.1640625 C-40.53991699 57.49922852 -40.05249023 56.83439453 -39.55029297 56.14941406 C-36.72762934 52.23591318 -34.02559317 48.23986595 -31.3125 44.25 C-27.33397156 38.4114329 -23.3419736 32.58608915 -19.26953125 26.8125 C-18.1569229 25.22403761 -17.07576235 23.61364353 -16 22 C-15.34 22 -14.68 22 -14 22 C-13.9175 21.46375 -13.835 20.9275 -13.75 20.375 C-12.72418729 17.12659309 -11.03436106 14.71248141 -9 12 C-8.34 12 -7.68 12 -7 12 C-6.95875 11.319375 -6.9175 10.63875 -6.875 9.9375 C-5.62612319 5.74484213 -2.95973269 3.1407561 0 0 Z " fill="#F3F3F3" transform="translate(171,86)"/>
<path d="M0 0 C1.07461739 0.00539291 1.07461739 0.00539291 2.17094421 0.01089478 C2.92211517 0.01074875 3.67328613 0.01060272 4.44721985 0.01045227 C6.94166404 0.01115153 9.43603448 0.01894452 11.9304657 0.02676392 C13.65539509 0.02862805 15.38032501 0.03005197 17.10525513 0.03105164 C21.65418448 0.03487719 26.20308211 0.04470779 30.7519989 0.05575562 C35.39025951 0.06596893 40.02852522 0.07054908 44.66679382 0.07559204 C53.77422967 0.08633003 62.88164192 0.1034069 71.98905945 0.12442017 C72.12747905 3.84670248 72.21155652 7.56831978 72.28593445 11.29238892 C72.32573425 12.34486816 72.36553406 13.39734741 72.40653992 14.48171997 C72.52422047 22.32760642 72.52422047 22.32760642 69.78495789 26.40615845 C66.99058995 28.63511438 64.08102791 30.33453066 60.98905945 32.12442017 C59.9141668 33.02093623 58.86220269 33.94553967 57.83280945 34.89395142 C57.31557312 35.36856812 56.79833679 35.84318481 56.26542664 36.33218384 C55.76172546 36.79987183 55.25802429 37.26755981 54.73905945 37.74942017 C51.91093445 40.35098267 51.91093445 40.35098267 48.98905945 42.12442017 C45.56893449 41.97416363 43.05128517 41.65553303 39.98905945 40.12442017 C39.98905945 39.46442017 39.98905945 38.80442017 39.98905945 38.12442017 C38.84437195 38.03160767 38.84437195 38.03160767 37.67655945 37.93692017 C32.42384431 36.77954225 27.81690915 34.45244022 22.98905945 32.12442017 C22.98905945 31.46442017 22.98905945 30.80442017 22.98905945 30.12442017 C21.84437195 30.03160767 21.84437195 30.03160767 20.67655945 29.93692017 C15.42384431 28.77954225 10.81690915 26.45244022 5.98905945 24.12442017 C5.98905945 23.46442017 5.98905945 22.80442017 5.98905945 22.12442017 C5.14085632 22.02258423 4.2926532 21.92074829 3.41874695 21.81582642 C-0.37397156 21.0512351 -3.40181808 19.73287686 -6.88594055 18.06192017 C-8.03836243 17.5140686 -9.1907843 16.96621704 -10.37812805 16.40176392 C-11.24695618 15.98024048 -12.1157843 15.55871704 -13.01094055 15.12442017 C-12.46370372 11.74979302 -11.95604055 10.04207017 -10.01094055 7.12442017 C-9.35094055 7.12442017 -8.69094055 7.12442017 -8.01094055 7.12442017 C-7.70156555 6.15504517 -7.39219055 5.18567017 -7.07344055 4.18692017 C-5.47587025 -0.41784128 -4.69180445 0.00993379 0 0 Z " fill="#FAFAFA" transform="translate(108.01094055175781,183.87557983398438)"/>
<path d="M0 0 C0.33 0 0.66 0 1 0 C1 7.92 1 15.84 1 24 C-6.92 24 -14.84 24 -23 24 C-20.68635707 22.45757138 -18.61395515 21.2968427 -16.125 20.125 C-8.13162187 16.12100437 -3.80990472 10.82641259 -0.6875 2.5 C-0.460625 1.675 -0.23375 0.85 0 0 Z " fill="#000000" transform="translate(274,265)"/>
<path d="M0 0 C1.54242862 2.31364293 2.7031573 4.38604485 3.875 6.875 C7.87899563 14.86837813 13.17358741 19.19009528 21.5 22.3125 C22.325 22.539375 23.15 22.76625 24 23 C24 23.33 24 23.66 24 24 C16.08 24 8.16 24 0 24 C0 16.08 0 8.16 0 0 Z " fill="#000000" transform="translate(0,265)"/>
<path d="M0 0 C7.92 0 15.84 0 24 0 C24 7.92 24 15.84 24 24 C22.45757138 21.68635707 21.2968427 19.61395515 20.125 17.125 C16.12100437 9.13162187 10.82641259 4.80990472 2.5 1.6875 C1.675 1.460625 0.85 1.23375 0 1 C0 0.67 0 0.34 0 0 Z " fill="#000000" transform="translate(251,0)"/>
<path d="M0 0 C7.92 0 15.84 0 24 0 C21.68635707 1.54242862 19.61395515 2.7031573 17.125 3.875 C9.13162187 7.87899563 4.80990472 13.17358741 1.6875 21.5 C1.460625 22.325 1.23375 23.15 1 24 C0.67 24 0.34 24 0 24 C0 16.08 0 8.16 0 0 Z " fill="#000000" transform="translate(0,0)"/>
<path d="M0 0 C0.33 0 0.66 0 1 0 C1 2.97 1 5.94 1 9 C1.763125 8.236875 2.52625 7.47375 3.3125 6.6875 C4.199375 5.800625 5.08625 4.91375 6 4 C6.556875 3.401875 7.11375 2.80375 7.6875 2.1875 C9 1 9 1 11 1 C9.43977363 4.82964655 7.12444429 7.32190489 4 10 C2.68 10 1.36 10 0 10 C0 6.7 0 3.4 0 0 Z " fill="#BBBBBB" transform="translate(104,109)"/>
<path d="M0 0 C0.66 0.33 1.32 0.66 2 1 C-0.64 3.64 -3.28 6.28 -6 9 C-6.66 8.67 -7.32 8.34 -8 8 C-5.58443874 4.80800833 -3.31996462 2.25283313 0 0 Z " fill="#3C3C3C" transform="translate(115,95)"/>
<path d="M0 0 C0.99 0.33 1.98 0.66 3 1 C3 1.66 3 2.32 3 3 C0.09451118 5.04169485 -1.40142046 6 -5 6 C-3.35 4.02 -1.7 2.04 0 0 Z " fill="#C3C3C3" transform="translate(171,86)"/>
</svg>
